<svg xmlns="http://www.w3.org/2000/svg" viewBox="0 0 411.14 433.87"><defs><style>.cls-1{fill:#8293ca;}.cls-2{font-size:44.17px;font-family:SamsungSharpSans-Bold, SamsungSharpSans Bold;font-weight:700;}.cls-2,.cls-3{fill:#010101;}</style></defs><title>CaptureTheNight</title><g id="Layer_2" data-name="Layer 2"><g id="Layer_1-2" data-name="Layer 1"><path class="cls-1" d="M410.92,314.15A217,217,0,0,1,216.67,433.87C96.86,433.72-.15,336.48,0,216.67S97.39-.14,217.2,0A216.94,216.94,0,0,1,410.92,119.72C411.16,120.2,411.26,313.47,410.92,314.15Z"/><text class="cls-2" transform="matrix(0.57, -0.82, 0.82, 0.57, 90.93, 145.55)">C</text><text class="cls-2" transform="translate(106.2 123.92) rotate(-45.72)">a</text><text class="cls-2" transform="translate(121.49 108.1) rotate(-36.29)">p</text><text class="cls-2" transform="translate(142.83 92.99) rotate(-28)">t</text><text class="cls-2" transform="translate(156.52 85.4) rotate(-19.82)">u</text><text class="cls-2" transform="translate(180.47 77.21) rotate(-11.66)">r</text><text class="cls-2" transform="matrix(1, -0.07, 0.07, 1, 195.69, 73.89)">e</text><text class="cls-2" transform="translate(219.93 72.73) rotate(3.03)"> </text><text class="cls-2" transform="translate(231.78 73.35) rotate(8.76)">t</text><text class="cls-2" transform="translate(247.2 75.43) rotate(16.94)">h</text><text class="cls-2" transform="matrix(0.89, 0.45, -0.45, 0.89, 271.45, 83.01)">e</text><text class="cls-2" transform="matrix(0.83, 0.56, -0.56, 0.83, 292.89, 94.34)"> </text><text class="cls-2" transform="translate(302.6 100.39) rotate(41.23)">n</text><text class="cls-2" transform="translate(321.57 117.72) rotate(48.57)">i</text><text class="cls-2" transform="matrix(0.56, 0.83, -0.83, 0.56, 329.54, 126.17)">g</text><text class="cls-2" transform="translate(343.61 147.11) rotate(65.97)">h</text><text class="cls-2" transform="translate(353.53 170.34) rotate(74.1)">t</text><text class="cls-2" transform="translate(357.85 186.33) rotate(79.64)">,</text><text class="cls-2" transform="translate(359.88 198.04) rotate(84.41)"> </text><text class="cls-2" transform="translate(361.34 209.41) rotate(91.84)">n</text><text class="cls-2" transform="matrix(-0.2, 0.98, -0.98, -0.2, 360.46, 234.67)">o</text><text class="cls-2" transform="translate(354.5 260.23) rotate(109.32)"> </text><text class="cls-2" transform="translate(351.86 270.9) rotate(119.12)">m</text><text class="cls-2" transform="matrix(-0.65, 0.76, -0.76, -0.65, 333.15, 302.83)">a</text><text class="cls-2" transform="translate(318.42 319.52) rotate(138.16)">t</text><text class="cls-2" transform="translate(305.53 330.86) rotate(144.95)">t</text><text class="cls-2" transform="translate(292.97 339.91) rotate(152.58)">e</text><text class="cls-2" transform="translate(272.06 350.37) rotate(160.39)">r</text><text class="cls-2" transform="matrix(-0.97, 0.24, -0.24, -0.97, 256.03, 355.81)"> </text><text class="cls-2" transform="translate(244.53 358.65) rotate(171.93)">t</text><text class="cls-2" transform="translate(228.93 360.93) rotate(179.14)">h</text><text class="cls-2" transform="translate(203.7 360.94) rotate(-170.47)">e</text><text class="cls-2" transform="translate(179.89 356.41) rotate(-163.32)"> </text><text class="cls-2" transform="translate(168.37 352.86) rotate(-158.28)">l</text><text class="cls-2" transform="matrix(-0.89, -0.45, 0.45, -0.89, 157.12, 348.29)">i</text><text class="cls-2" transform="matrix(-0.83, -0.56, 0.56, -0.83, 146.56, 343.44)">g</text><text class="cls-2" transform="matrix(-0.72, -0.69, 0.69, -0.72, 125.67, 329.27)">h</text><text class="cls-2" transform="translate(107.75 311.45) rotate(-128.04)">t</text><text class="cls-2" transform="matrix(-0.54, -0.84, 0.84, -0.54, 97.67, 298.21)">.</text><path class="cls-3" d="M237.36,296.17a85.62,85.62,0,1,1-15.8-169.74,93.35,93.35,0,0,0-10.64,18,94.73,94.73,0,0,0,47.65,125.05,93.22,93.22,0,0,0,19.92,6.35A85.67,85.67,0,0,1,237.36,296.17Z"/><polygon class="cls-3" points="242.77 201.09 240.69 213.5 238.27 201.15 225.86 199.08 238.2 196.65 240.28 184.25 242.71 196.59 255.11 198.67 242.77 201.09"/><polygon class="cls-3" points="275.36 234.22 272.63 250.48 269.45 234.3 253.19 231.58 269.37 228.4 272.1 212.14 275.28 228.31 291.54 231.04 275.36 234.22"/><polygon class="cls-3" points="261.91 155.2 259.18 171.47 256 155.28 239.74 152.56 255.92 149.38 258.65 133.12 261.83 149.3 278.09 152.02 261.91 155.2"/></g></g></svg>