<svg xmlns="http://www.w3.org/2000/svg" viewBox="0 0 957.56 348.91"><defs><style>.cls-1{fill:#fff;}</style></defs><title>IntoTheNight</title><g id="Layer_2" data-name="Layer 2"><g id="Layer_1-2" data-name="Layer 1"><path class="cls-1" d="M207.57,345a10.76,10.76,0,0,1,1.21-5.08,19.59,19.59,0,0,1,3.13-4.38,32.5,32.5,0,0,1,4.37-3.9c1.63-1.22,3.28-2.42,4.93-3.57s3.09-2.22,4.57-3.29a34,34,0,0,0,3.91-3.28,15.74,15.74,0,0,0,2.74-3.55,8,8,0,0,0,1-4,8.72,8.72,0,0,0-3-6.83,11.61,11.61,0,0,0-8-2.64,12,12,0,0,0-7.14,2.11,14.79,14.79,0,0,0-4.67,5.4l-3.26-1.73a16.22,16.22,0,0,1,15-9.17,17.67,17.67,0,0,1,6.13,1,14.26,14.26,0,0,1,4.7,2.75,11.73,11.73,0,0,1,3,4.1,12.31,12.31,0,0,1,1.05,5.07,11.06,11.06,0,0,1-1.14,5,18.22,18.22,0,0,1-3,4.3,33.55,33.55,0,0,1-4.27,3.78q-2.38,1.77-4.86,3.52t-4.6,3.26a33.57,33.57,0,0,0-4,3.39,17,17,0,0,0-2.8,3.68,8.35,8.35,0,0,0-1.08,4.13H238v3.72H207.57Z"/><path class="cls-1" d="M286.92,348.91q-7.11,0-11-4T272,334.07V316.36a17.07,17.07,0,0,1,1.08-6.18,13.9,13.9,0,0,1,3-4.8,13.74,13.74,0,0,1,4.69-3.13,16.08,16.08,0,0,1,6.07-1.11,15.66,15.66,0,0,1,6.14,1.15,14,14,0,0,1,4.7,3.15,13.71,13.71,0,0,1,3,4.81,17.49,17.49,0,0,1,1,6.11v18q0,6.94-4,10.77T286.92,348.91Zm-.06-3.46q5.28,0,8.22-2.95t2.94-8.21V316.4q0-5.58-2.91-8.69T287,304.6c-3.52,0-6.27,1.07-8.22,3.2a12.23,12.23,0,0,0-2.94,8.6V334q0,5.4,2.87,8.41T286.86,345.45Z"/><path class="cls-1" d="M336.45,345a10.88,10.88,0,0,1,1.21-5.08,19.92,19.92,0,0,1,3.13-4.38,32.6,32.6,0,0,1,4.38-3.9c1.63-1.22,3.27-2.42,4.92-3.57s3.09-2.22,4.57-3.29a35,35,0,0,0,3.92-3.28,16,16,0,0,0,2.74-3.55,8.08,8.08,0,0,0,1-4,8.72,8.72,0,0,0-3-6.83,11.58,11.58,0,0,0-8-2.64,12,12,0,0,0-7.15,2.11,14.76,14.76,0,0,0-4.66,5.4l-3.27-1.73a16.47,16.47,0,0,1,5.84-6.6,16.27,16.27,0,0,1,9.17-2.57,17.77,17.77,0,0,1,6.14,1,14.46,14.46,0,0,1,4.7,2.75,12,12,0,0,1,3,4.1,12.46,12.46,0,0,1,1,5.07,11.06,11.06,0,0,1-1.14,5,17.89,17.89,0,0,1-3,4.3,34.36,34.36,0,0,1-4.28,3.78q-2.38,1.77-4.86,3.52t-4.6,3.26a33.43,33.43,0,0,0-4,3.39,16.74,16.74,0,0,0-2.81,3.68,8.34,8.34,0,0,0-1.07,4.13h26.42v3.72H336.45Z"/><path class="cls-1" d="M400.86,345a10.88,10.88,0,0,1,1.21-5.08,19.59,19.59,0,0,1,3.13-4.38,33.13,33.13,0,0,1,4.37-3.9c1.64-1.22,3.28-2.42,4.93-3.57s3.09-2.22,4.57-3.29a35,35,0,0,0,3.92-3.28,16,16,0,0,0,2.74-3.55,8.08,8.08,0,0,0,1-4,8.72,8.72,0,0,0-3-6.83,11.58,11.58,0,0,0-8-2.64,12,12,0,0,0-7.15,2.11A14.76,14.76,0,0,0,404,312l-3.27-1.73a16.22,16.22,0,0,1,15-9.17,17.77,17.77,0,0,1,6.14,1,14.31,14.31,0,0,1,4.69,2.75,11.88,11.88,0,0,1,3,4.1,12.46,12.46,0,0,1,1,5.07,11.06,11.06,0,0,1-1.14,5,17.66,17.66,0,0,1-3,4.3,33.55,33.55,0,0,1-4.27,3.78q-2.39,1.77-4.86,3.52t-4.6,3.26a33.43,33.43,0,0,0-4,3.39,16.74,16.74,0,0,0-2.81,3.68,8.35,8.35,0,0,0-1.08,4.13h26.43v3.72H400.86Z"/><path class="cls-1" d="M521.72,304.66H506.84v-3.45h33.54v3.45H525.51v44.18h-3.79Z"/><path class="cls-1" d="M592.52,348.91A24.17,24.17,0,0,1,583,347a24.8,24.8,0,0,1-7.77-5.13,24.07,24.07,0,0,1-5.25-7.58,23.35,23.35,0,0,1,0-18.59,24.07,24.07,0,0,1,5.25-7.58A24.8,24.8,0,0,1,583,303a25.07,25.07,0,0,1,19,0,24.8,24.8,0,0,1,7.77,5.13,24.07,24.07,0,0,1,5.25,7.58,23.35,23.35,0,0,1,0,18.59,24.07,24.07,0,0,1-5.25,7.58,24.8,24.8,0,0,1-7.77,5.13A24.22,24.22,0,0,1,592.52,348.91Zm0-3.59a20.28,20.28,0,0,0,8.13-1.62,20.86,20.86,0,0,0,6.52-4.37,20,20,0,0,0,4.34-6.44,20.33,20.33,0,0,0-4.34-22.23,20.47,20.47,0,0,0-6.52-4.35,21.68,21.68,0,0,0-16.25,0,20.24,20.24,0,0,0-10.9,10.82,20.2,20.2,0,0,0,0,15.76,20.62,20.62,0,0,0,4.37,6.44,20.91,20.91,0,0,0,6.53,4.37A20.27,20.27,0,0,0,592.52,345.32Z"/><path class="cls-1" d="M667.37,348.91a16.61,16.61,0,0,1-6.42-1.23,15.43,15.43,0,0,1-5.13-3.38,16,16,0,0,1-4.63-11.38V301.21H655v31.87a12.19,12.19,0,0,0,.94,4.77,11.93,11.93,0,0,0,2.61,3.9,12.51,12.51,0,0,0,4,2.6,12.84,12.84,0,0,0,9.79,0,12.12,12.12,0,0,0,4-2.64,12.63,12.63,0,0,0,2.64-3.89,11.81,11.81,0,0,0,1-4.8V301.21h3.78v31.71a15.94,15.94,0,0,1-1.24,6.29,15.51,15.51,0,0,1-8.58,8.47A16.63,16.63,0,0,1,667.37,348.91Z"/><path class="cls-1" d="M736,331.09H723.1v17.75h-3.78V301.21H734.2a16.29,16.29,0,0,1,6.2,1.17,15.76,15.76,0,0,1,5,3.2,14.45,14.45,0,0,1,4.47,10.5,14.17,14.17,0,0,1-.75,4.57A14.49,14.49,0,0,1,747,324.7a15.57,15.57,0,0,1-3.3,3.23,14.34,14.34,0,0,1-4.27,2.12l10.7,18.79h-4.24ZM723.1,304.66v23h10.77a12.53,12.53,0,0,0,5-.94,12.06,12.06,0,0,0,3.85-2.58,11.48,11.48,0,0,0,2.51-3.72,10.93,10.93,0,0,0,.88-4.31,11.43,11.43,0,0,0-.88-4.5,10.58,10.58,0,0,0-2.48-3.62,11.63,11.63,0,0,0-3.85-2.42,13.53,13.53,0,0,0-4.92-.88Z"/><path class="cls-1" d="M0,119.1H20V226.64H0Z"/><path class="cls-1" d="M33.44,140.46H53.18v11.77A31.61,31.61,0,0,1,64,143.58,33,33,0,0,1,79,140.31q16,0,25.12,9.55t9.06,26.6v50.18H93V178.71q0-9.78-4.87-15.47t-14.58-5.69a19.38,19.38,0,0,0-14.36,5.9q-5.82,5.91-5.82,17v46.2H33.44Z"/><path class="cls-1" d="M117.85,140.46h14.73V127.35l20-13.7v26.81h17.53v17.83H152.62v32.26a56.41,56.41,0,0,0,.59,9.06,8.38,8.38,0,0,0,7.73,7.73,56.45,56.45,0,0,0,9.21.59v18.71h-2.8a67.23,67.23,0,0,1-16.72-1.76,22.06,22.06,0,0,1-10.68-6,24.14,24.14,0,0,1-5.67-11,73,73,0,0,1-1.7-17.16V158.29H117.85Z"/><path class="cls-1" d="M305,140.46h14.73V127.35l20-13.7v26.81h17.53v17.83H339.71v32.26a56.41,56.41,0,0,0,.59,9.06,8.37,8.37,0,0,0,7.74,7.73,56.24,56.24,0,0,0,9.2.59v18.71h-2.79a67.32,67.32,0,0,1-16.73-1.76,22.1,22.1,0,0,1-10.68-6,24.14,24.14,0,0,1-5.67-11,73,73,0,0,1-1.69-17.16V158.29H305Z"/><path class="cls-1" d="M366.82,117.63h19.89v34.76a31.58,31.58,0,0,1,11-8.83,33,33,0,0,1,14.81-3.25q16,0,25.11,9.55t9.07,26.6v50.18H426.34V178.85q0-9.93-4.87-15.61t-14.58-5.69a20.31,20.31,0,0,0-7.81,1.51,18.39,18.39,0,0,0-6.41,4.39,20.17,20.17,0,0,0-4.27,7.2,28.94,28.94,0,0,0-1.55,9.79v46.2h-20Z"/><path class="cls-1" d="M500.73,226.79a49.92,49.92,0,0,1-18.56-3.33,43.2,43.2,0,0,1-14.37-9.16,41.37,41.37,0,0,1-9.28-13.71,42.91,42.91,0,0,1-3.31-16.82,42.6,42.6,0,0,1,13-30.82A45.66,45.66,0,0,1,500,140.31a49.56,49.56,0,0,1,17.75,3.11,41.55,41.55,0,0,1,14.07,8.7A40.13,40.13,0,0,1,541,165.31a41,41,0,0,1,3.32,16.58v7H474.21a25.59,25.59,0,0,0,9,14.73q6.92,5.61,17.53,5.6a25.22,25.22,0,0,0,23.87-15.17L541,203.51a44.68,44.68,0,0,1-15.69,16.87Q515.17,226.79,500.73,226.79ZM500,157.84a29.4,29.4,0,0,0-15.54,4,21.67,21.67,0,0,0-9.21,10.46h48.91a18.3,18.3,0,0,0-8.54-10.77Q509.27,157.85,500,157.84Z"/><path class="cls-1" d="M589.71,119.1H612.4L659,192.32V119.1h20V226.64H657.62l-47.87-75.57v75.57h-20Z"/><path class="cls-1" d="M688.41,119.39a12.4,12.4,0,0,1,3.39-9.06,12.22,12.22,0,0,1,9.13-3.46q5.9,0,9.21,3.46a12.56,12.56,0,0,1,3.31,9.06,12.29,12.29,0,0,1-3.31,9q-3.32,3.39-9.21,3.39t-9.28-3.39A12.46,12.46,0,0,1,688.41,119.39Zm2.51,21.07h20v86.18h-20Z"/><path class="cls-1" d="M790.21,213.53a32.77,32.77,0,0,1-12.08,9.73,36.77,36.77,0,0,1-16.06,3.53,43.25,43.25,0,0,1-29-11.36,41.79,41.79,0,0,1-9.73-13.56,43.36,43.36,0,0,1-3.68-18.25,44.3,44.3,0,0,1,3.61-18.38,40.76,40.76,0,0,1,23.28-22,44.59,44.59,0,0,1,15.83-2.92,37.22,37.22,0,0,1,15.77,3.33,33.57,33.57,0,0,1,11.93,9V140.46H810v82.91a48.87,48.87,0,0,1-2.87,16.87A39.31,39.31,0,0,1,798.6,254a39.78,39.78,0,0,1-13.92,9.31,50.45,50.45,0,0,1-19.22,3.41,58.64,58.64,0,0,1-15.25-1.84,47,47,0,0,1-12.3-5.15,43.85,43.85,0,0,1-9.58-7.81,49.35,49.35,0,0,1-7.07-9.94l17.68-10.76q4.71,8.68,10.61,13t16.2,4.28a24.39,24.39,0,0,0,10.17-2.07,23.83,23.83,0,0,0,7.73-5.45,23.51,23.51,0,0,0,4.86-8,26.93,26.93,0,0,0,1.7-9.43Zm-24.9-5a26.88,26.88,0,0,0,10.31-1.93,24,24,0,0,0,8.11-5.4,26.48,26.48,0,0,0,5.37-8,24.21,24.21,0,0,0,2-9.82,23.89,23.89,0,0,0-2-9.68,25.57,25.57,0,0,0-5.37-8,24.6,24.6,0,0,0-8.11-5.33,27.46,27.46,0,0,0-28.87,5.26,23.59,23.59,0,0,0-5.53,7.89,24.42,24.42,0,0,0-2,9.82,24.89,24.89,0,0,0,2,9.89,24.27,24.27,0,0,0,5.53,8,26,26,0,0,0,8.32,5.33A27.07,27.07,0,0,0,765.31,208.52Z"/><path class="cls-1" d="M820.85,117.63h19.89v34.76a31.58,31.58,0,0,1,11-8.83,33,33,0,0,1,14.81-3.25q16.05,0,25.12,9.55t9.06,26.6v50.18H880.37V178.85q0-9.93-4.87-15.61t-14.58-5.69a20.35,20.35,0,0,0-7.81,1.51,18.39,18.39,0,0,0-6.41,4.39,20.31,20.31,0,0,0-4.27,7.2,28.94,28.94,0,0,0-1.55,9.79v46.2h-20Z"/><path class="cls-1" d="M905.26,140.46H920V127.35l20-13.7v26.81h17.53v17.83H940v32.26a56.41,56.41,0,0,0,.59,9.06,8.38,8.38,0,0,0,7.73,7.73,56.45,56.45,0,0,0,9.21.59v18.71h-2.8A67.23,67.23,0,0,1,938,224.88a22.06,22.06,0,0,1-10.68-6,24.14,24.14,0,0,1-5.67-11A73,73,0,0,1,920,190.7V158.29H905.26Z"/><path class="cls-1" d="M259.79,166.65a42.89,42.89,0,0,0-9.57-13.77,45.18,45.18,0,0,0-31.6-12.57,45.84,45.84,0,0,0-17.46,3.34,43.33,43.33,0,0,0-23.72,23,43,43,0,0,0,0,33.8,43.33,43.33,0,0,0,23.72,23,45.65,45.65,0,0,0,17.46,3.34,45.18,45.18,0,0,0,31.6-12.57,42.67,42.67,0,0,0,9.57-13.77,42.89,42.89,0,0,0,0-33.8Zm-40.7,42.49a26.07,26.07,0,0,1-7-51.18,26.37,26.37,0,0,0-1,7,26.08,26.08,0,0,0,33.05,25.12A26.08,26.08,0,0,1,219.09,209.14Z"/><path class="cls-1" d="M226.43,47.45a21.86,21.86,0,0,1-10.69-2.4,28.3,28.3,0,0,1-7.56-6l7.94-6a12.94,12.94,0,0,0,4.42,4.49,11.17,11.17,0,0,0,5.82,1.55,7.09,7.09,0,0,0,5.29-1.86A5.92,5.92,0,0,0,233.47,33a3.66,3.66,0,0,0-.83-2.42,7,7,0,0,0-2.18-1.71,18,18,0,0,0-3.1-1.28l-3.62-1.12q-2.37-.73-4.74-1.61a15.94,15.94,0,0,1-4.26-2.33A11.65,11.65,0,0,1,211.67,19a11,11,0,0,1-1.19-5.38,11.49,11.49,0,0,1,1.16-5.1,12.71,12.71,0,0,1,3.23-4.13,15.47,15.47,0,0,1,4.93-2.77,18.71,18.71,0,0,1,6.18-1,23.26,23.26,0,0,1,5.09.51,19.55,19.55,0,0,1,4.16,1.41,18.08,18.08,0,0,1,3.46,2.14,29.37,29.37,0,0,1,3,2.72l-7.17,5.58A9.55,9.55,0,0,0,226,8.32a7,7,0,0,0-4.86,1.5,4.74,4.74,0,0,0-1.67,3.67,3.51,3.51,0,0,0,.77,2.3,7.09,7.09,0,0,0,2.08,1.65,18.42,18.42,0,0,0,3,1.27l3.65,1.18q2.37.75,4.77,1.71a18.3,18.3,0,0,1,4.36,2.49,12.14,12.14,0,0,1,3.17,3.73,11.34,11.34,0,0,1,1.21,5.51,13.27,13.27,0,0,1-1.08,5.22,13.64,13.64,0,0,1-3.14,4.51,15.71,15.71,0,0,1-5.06,3.18A18.39,18.39,0,0,1,226.43,47.45Z"/><path class="cls-1" d="M264.72,47.45a18.91,18.91,0,0,1-12.62-4.94,18,18,0,0,1-4.22-5.89,18.78,18.78,0,0,1-1.6-7.93,19.26,19.26,0,0,1,1.57-8A17.73,17.73,0,0,1,258,11.13a19.28,19.28,0,0,1,6.89-1.27,17.33,17.33,0,0,1,6.85,1.34,14.27,14.27,0,0,1,5.18,3.67V9.93h8.65V47.38h-8.65V42.06A14.07,14.07,0,0,1,271.63,46,16.64,16.64,0,0,1,264.72,47.45Zm1.41-7.94a11.72,11.72,0,0,0,4.48-.84,10.5,10.5,0,0,0,3.52-2.35,11.5,11.5,0,0,0,2.34-3.49,10.88,10.88,0,0,0,0-8.48,11.36,11.36,0,0,0-2.34-3.46,10.56,10.56,0,0,0-3.52-2.31,12.29,12.29,0,0,0-8.93,0,11.49,11.49,0,0,0-3.62,2.28,10.22,10.22,0,0,0-2.4,3.43,10.55,10.55,0,0,0-.87,4.27,10.7,10.7,0,0,0,.87,4.3,10.37,10.37,0,0,0,2.4,3.49,11.41,11.41,0,0,0,3.62,2.32A11.75,11.75,0,0,0,266.13,39.51Z"/><path class="cls-1" d="M290.78,9.93h8.58v4.83a12.74,12.74,0,0,1,4.51-3.58,14,14,0,0,1,6.18-1.32,15.35,15.35,0,0,1,7.46,1.67,11.71,11.71,0,0,1,4.71,4.7,14,14,0,0,1,5.09-4.63,14.7,14.7,0,0,1,7.2-1.74q7.56,0,11.4,4.12t3.84,11.28V47.38h-8.83V26.05a9.34,9.34,0,0,0-2.05-6.35,7.68,7.68,0,0,0-6.09-2.35,8,8,0,0,0-5.89,2.38c-1.58,1.59-2.37,4-2.37,7.2V47.38h-8.77V25.8a9.09,9.09,0,0,0-2-6.2,7.46,7.46,0,0,0-5.9-2.25,8.16,8.16,0,0,0-6.05,2.44q-2.4,2.45-2.4,7.32V47.38h-8.64Z"/><path class="cls-1" d="M368.77,47.45a20.78,20.78,0,0,1-10.31-2.31,15.69,15.69,0,0,1-6.34-6.68l8-3.61a9.66,9.66,0,0,0,3.65,3.79A10.65,10.65,0,0,0,369.15,40a7.51,7.51,0,0,0,4.8-1.29,3.8,3.8,0,0,0,1.61-3.05,2,2,0,0,0-.74-1.58A6.66,6.66,0,0,0,372.9,33a16.31,16.31,0,0,0-2.79-.77c-1.06-.2-2.17-.42-3.33-.67-1.62-.32-3.21-.71-4.77-1.16a15.65,15.65,0,0,1-4.19-1.86,9.53,9.53,0,0,1-3-3.05,8.72,8.72,0,0,1-1.15-4.67,8.67,8.67,0,0,1,1-4.12,11.24,11.24,0,0,1,3-3.51,14.65,14.65,0,0,1,4.64-2.41,19.51,19.51,0,0,1,6.05-.89A19.06,19.06,0,0,1,377.76,12a15.71,15.71,0,0,1,5.93,5.68l-7.37,3.48a8.08,8.08,0,0,0-3.2-3,9.87,9.87,0,0,0-4.74-1.1,7.32,7.32,0,0,0-4.54,1.16,3.38,3.38,0,0,0-1.47,2.69c0,1.18.72,2,2.17,2.53A51.34,51.34,0,0,0,371,25a45.33,45.33,0,0,1,4.64,1.13,17.53,17.53,0,0,1,4.26,1.9,9.61,9.61,0,0,1,3.1,3.05,8.54,8.54,0,0,1,1.19,4.67,9.73,9.73,0,0,1-.9,3.94,11.36,11.36,0,0,1-2.79,3.79,14.63,14.63,0,0,1-4.77,2.84A19.45,19.45,0,0,1,368.77,47.45Z"/><path class="cls-1" d="M421.27,47.38H412.7V42.69a12.39,12.39,0,0,1-4.49,3.49,14.47,14.47,0,0,1-6.27,1.27q-6.66,0-10.54-4.15t-3.87-11.57V9.93h8.77V30.76a10.48,10.48,0,0,0,2,6.72c1.3,1.65,3.31,2.48,6.05,2.48a7.76,7.76,0,0,0,5.95-2.57q2.37-2.56,2.37-7.38V9.93h8.64Z"/><path class="cls-1" d="M426.59,9.93h8.58V15a13.85,13.85,0,0,1,4.7-3.76,14.35,14.35,0,0,1,6.5-1.42q7,0,10.92,4.15t3.94,11.56V47.38h-8.77V26.55a10,10,0,0,0-2.12-6.73c-1.4-1.64-3.52-2.47-6.34-2.47a8.43,8.43,0,0,0-6.24,2.57q-2.53,2.56-2.53,7.38V47.38h-8.64Z"/><path class="cls-1" d="M495.68,41.69a14.25,14.25,0,0,1-5.25,4.22,15.86,15.86,0,0,1-7,1.54,18.91,18.91,0,0,1-12.62-4.94,18,18,0,0,1-4.22-5.89,18.78,18.78,0,0,1-1.6-7.93,19.26,19.26,0,0,1,1.57-8,17.73,17.73,0,0,1,10.11-9.56,19.28,19.28,0,0,1,6.89-1.27,16.09,16.09,0,0,1,6.85,1.45,14.36,14.36,0,0,1,5.18,3.91V9.93h8.65V46A21.21,21.21,0,0,1,503,53.29a16.74,16.74,0,0,1-9.73,10,21.73,21.73,0,0,1-8.36,1.49,25.74,25.74,0,0,1-6.63-.8A20.37,20.37,0,0,1,473,61.76a18.92,18.92,0,0,1-4.16-3.39A21.79,21.79,0,0,1,465.71,54l7.68-4.67A16.55,16.55,0,0,0,478,55a11.75,11.75,0,0,0,7,1.86,10.62,10.62,0,0,0,4.42-.9,10,10,0,0,0,5.47-5.82,11.75,11.75,0,0,0,.74-4.1Zm-10.82-2.18a11.72,11.72,0,0,0,4.48-.84,10.61,10.61,0,0,0,3.52-2.35,11.5,11.5,0,0,0,2.34-3.49,10.88,10.88,0,0,0,0-8.48,11.36,11.36,0,0,0-2.34-3.46,10.66,10.66,0,0,0-3.52-2.31,12.29,12.29,0,0,0-8.93,0,11.49,11.49,0,0,0-3.62,2.28,10.22,10.22,0,0,0-2.4,3.43,10.55,10.55,0,0,0-.87,4.27,10.7,10.7,0,0,0,.87,4.3,10.37,10.37,0,0,0,2.4,3.49,11.41,11.41,0,0,0,3.62,2.32A11.75,11.75,0,0,0,484.86,39.51Z"/><path class="cls-1" d="M548.18,47.45a25.45,25.45,0,0,1-9.92-1.88,23.46,23.46,0,0,1-7.69-5.09A22.67,22.67,0,0,1,525.64,33a23.68,23.68,0,0,1-1.73-9,23.34,23.34,0,0,1,1.8-9.15,22.67,22.67,0,0,1,5-7.44,23.46,23.46,0,0,1,7.56-5A24.4,24.4,0,0,1,547.8.58a27,27,0,0,1,6.85.84,24.17,24.17,0,0,1,5.92,2.4,23,23,0,0,1,4.87,3.72,22.72,22.72,0,0,1,3.62,4.72l-7.69,4.17a14.72,14.72,0,0,0-5.54-5.54,16.19,16.19,0,0,0-8-1.86,15.13,15.13,0,0,0-6.05,1.2A15.67,15.67,0,0,0,537,13.47,14.57,14.57,0,0,0,532.56,24a14.8,14.8,0,0,0,1.15,5.86A14.53,14.53,0,0,0,537,34.62a15,15,0,0,0,5,3.2A16.32,16.32,0,0,0,548.18,39a13.26,13.26,0,0,0,13.51-10.12H546.77V20.55H571V24a25.31,25.31,0,0,1-1.6,9,22.42,22.42,0,0,1-4.58,7.46,21.9,21.9,0,0,1-7.2,5.09A23,23,0,0,1,548.18,47.45Z"/><path class="cls-1" d="M592.81,47.45a18.86,18.86,0,0,1-12.61-4.94A18.2,18.2,0,0,1,576,36.62a18.94,18.94,0,0,1-1.6-7.93,19.26,19.26,0,0,1,1.57-8,17.71,17.71,0,0,1,10.12-9.56,19.22,19.22,0,0,1,6.88-1.27,17.29,17.29,0,0,1,6.85,1.34A14.4,14.4,0,0,1,605,14.87V9.93h8.64V47.38H605V42.06A14.23,14.23,0,0,1,599.73,46,16.69,16.69,0,0,1,592.81,47.45Zm1.41-7.94a11.77,11.77,0,0,0,4.49-.84,10.71,10.71,0,0,0,3.52-2.35,11.29,11.29,0,0,0,2.33-3.49,10.77,10.77,0,0,0,0-8.48,11.16,11.16,0,0,0-2.33-3.46,10.76,10.76,0,0,0-3.52-2.31,12,12,0,0,0-12.56,2.28,10.51,10.51,0,0,0-2.4,3.43,10.72,10.72,0,0,0-.86,4.27,10.86,10.86,0,0,0,.86,4.3,10.66,10.66,0,0,0,2.4,3.49,11.64,11.64,0,0,0,3.62,2.32A11.78,11.78,0,0,0,594.22,39.51Z"/><path class="cls-1" d="M618.55,0h8.71V47.38h-8.71Z"/><path class="cls-1" d="M649.48,47.45a18.86,18.86,0,0,1-12.61-4.94,18.06,18.06,0,0,1-4.23-5.89,18.78,18.78,0,0,1-1.6-7.93,19.26,19.26,0,0,1,1.57-8,17.73,17.73,0,0,1,10.11-9.56,19.32,19.32,0,0,1,6.89-1.27,17.33,17.33,0,0,1,6.85,1.34,14.4,14.4,0,0,1,5.19,3.67V9.93h8.64V47.38h-8.64V42.06A14.23,14.23,0,0,1,656.4,46,16.69,16.69,0,0,1,649.48,47.45Zm1.41-7.94a11.72,11.72,0,0,0,4.48-.84,10.5,10.5,0,0,0,3.52-2.35,11.5,11.5,0,0,0,2.34-3.49,10.88,10.88,0,0,0,0-8.48,11.36,11.36,0,0,0-2.34-3.46,10.56,10.56,0,0,0-3.52-2.31,12.29,12.29,0,0,0-8.93,0,11.49,11.49,0,0,0-3.62,2.28,10.45,10.45,0,0,0-3.26,7.7,10.72,10.72,0,0,0,3.26,7.79,11.41,11.41,0,0,0,3.62,2.32A11.78,11.78,0,0,0,650.89,39.51Z"/><path class="cls-1" d="M686.49,28.3,672.92,9.93h10.56L692,21.84l8.45-11.91h10.24l-13.44,18.5,14.34,19H701L691.87,34.9,683,47.38H672.4Z"/><path class="cls-1" d="M727.15,45.76,711.78,9.93H721l10.44,25.62L741.3,9.93h9.09L728.05,64.61h-8.77Z"/></g></g></svg>