<svg xmlns="http://www.w3.org/2000/svg" viewBox="0 0 431.74 431.74"><defs><style>.cls-1{fill:#2cbcaf;}.cls-2{fill:#010101;}</style></defs><title>Nightography</title><g id="Layer_2" data-name="Layer 2"><g id="Layer_1-2" data-name="Layer 1"><path class="cls-1" d="M398.46,143.69c21.45-23.38-.41-60.38-31.24-52.89,13.17-28.87-19.05-57.3-46.05-40.65,3.6-31.52-35.83-48.61-56.37-24.43-6.31-31.09-49.09-35.16-61.15-5.81C188-7.71,146.09,1.64,143.69,33.27c-23.38-21.44-60.38.42-52.89,31.25-28.87-13.17-57.3,19-40.65,46.05C18.63,107,1.54,146.4,25.72,166.94-5.37,173.25-9.44,216,19.91,228.09c-27.62,15.61-18.27,57.56,13.37,60-21.45,23.38.41,60.38,31.24,52.89-13.17,28.87,19,57.3,46.05,40.65h0C107,413.11,146.4,430.2,166.94,406c6.31,31.09,49.09,35.16,61.15,5.81,15.61,27.62,57.56,18.27,60-13.37,23.38,21.45,60.38-.41,52.89-31.24,28.86,13.17,57.3-19.05,40.65-46.05h0c31.52,3.6,48.61-35.83,24.43-56.37,31.09-6.31,35.16-49.09,5.81-61.15C439.45,188,430.1,146.09,398.46,143.69Z"/><path class="cls-2" d="M58,227.21l.2-7.85L84,203.88l-25.35-.64.18-6.94,37.23.95-.19,7.4L69.28,220.56l26.17.66-.18,6.94Z"/><path class="cls-2" d="M61.7,183.89A4.29,4.29,0,0,1,58.92,182a4.81,4.81,0,0,1,1.46-6.18,4.35,4.35,0,0,1,3.32-.39,4,4,0,0,1,3.17,5.21A4.23,4.23,0,0,1,65,183.51,4.3,4.3,0,0,1,61.7,183.89Zm7.3.84L70.6,178l29,6.89L98,191.61Z"/><path class="cls-2" d="M106.45,156.54a11.36,11.36,0,0,1,1.31,5.21,12.71,12.71,0,0,1-1.21,5.57,14.74,14.74,0,0,1-7.91,7.42,14.7,14.7,0,0,1-5.83,1,15.9,15.9,0,0,1-6.49-1.57,16.49,16.49,0,0,1-5.48-3.9,14.83,14.83,0,0,1-3-5,14.41,14.41,0,0,1-.79-5.56,15.12,15.12,0,0,1,1.35-5.44,12.58,12.58,0,0,1,3.37-4.46,11.71,11.71,0,0,1,4.67-2.4l-3.47-1.6,2.87-6.25,26.42,12.15a17.36,17.36,0,0,1,5,3.37,13.48,13.48,0,0,1,4.1,10.43A17.33,17.33,0,0,1,119.6,172a20.27,20.27,0,0,1-2.79,4.53,16.26,16.26,0,0,1-3.4,3.12,15.19,15.19,0,0,1-3.84,1.88,16.65,16.65,0,0,1-4.15.79l-.83-7.12a20.22,20.22,0,0,0,3.07-.44,8.31,8.31,0,0,0,2.51-1,8.4,8.4,0,0,0,2.06-1.78,11.61,11.61,0,0,0,1.66-2.71,8.49,8.49,0,0,0,.83-3.5,8,8,0,0,0-2.4-5.9,9.2,9.2,0,0,0-2.72-1.9Zm-5.18,7.11a8.77,8.77,0,0,0,.83-3.52,8.29,8.29,0,0,0-.62-3.4,10.06,10.06,0,0,0-1.91-2.93,9.56,9.56,0,0,0-3-2.14,9.61,9.61,0,0,0-7-.4,8.42,8.42,0,0,0-3,1.75,9,9,0,0,0-2.13,2.93,8.73,8.73,0,0,0-.84,3.54,9.13,9.13,0,0,0,.57,3.41,8.74,8.74,0,0,0,1.84,3,9.63,9.63,0,0,0,3,2.14,9.74,9.74,0,0,0,3.6.9,8.84,8.84,0,0,0,3.49-.51,9,9,0,0,0,3-1.77A8.73,8.73,0,0,0,101.27,163.65Z"/><path class="cls-2" d="M86.73,123.85l4.47-5.24,8.74,7.44a10.89,10.89,0,0,1,.13-4.88,11.5,11.5,0,0,1,2.47-4.63q3.61-4.23,8.2-4.44t9.19,3.7l13.47,11.48-4.56,5.36-12.9-11a8.4,8.4,0,0,0-5.3-2.31,6.19,6.19,0,0,0-4.81,2.54,6.92,6.92,0,0,0-1.37,2.42,6.29,6.29,0,0,0-.21,2.7,7.49,7.49,0,0,0,1,2.78,10.32,10.32,0,0,0,2.27,2.64L120,143.05l-4.5,5.28Z"/><path class="cls-2" d="M117.64,102l4-3.1-2.75-3.61,2.65-8,5.62,7.39L132.05,91,135.79,96,131,99.63l6.76,8.89a19.74,19.74,0,0,0,2.07,2.37,3.23,3.23,0,0,0,1.78,1,3.27,3.27,0,0,0,2-.44,19.18,19.18,0,0,0,2.66-1.77l3.93,5.16-.77.58a23,23,0,0,1-5,3,7.64,7.64,0,0,1-4.2.6,8.35,8.35,0,0,1-3.88-1.85,25,25,0,0,1-4.06-4.38l-6.8-8.92-4.06,3.09Z"/><path class="cls-2" d="M166,107.12a15.41,15.41,0,0,1-6,1.42,15,15,0,0,1-5.85-1,15.58,15.58,0,0,1-5-3.13A15.62,15.62,0,0,1,145,87.55a15.68,15.68,0,0,1,3.1-5.06,15.47,15.47,0,0,1,11-5,16.28,16.28,0,0,1,5.86,1,15.2,15.2,0,0,1,5.06,3.1,16.06,16.06,0,0,1,5.05,11,15.7,15.7,0,0,1-1,5.87,15.54,15.54,0,0,1-3.1,5.07A15.22,15.22,0,0,1,166,107.12Zm-2.69-5.89a8.25,8.25,0,0,0,2.81-2.07,8.73,8.73,0,0,0,1.7-2.91,8.91,8.91,0,0,0,.47-3.39,9.72,9.72,0,0,0-2.92-6.4,9.07,9.07,0,0,0-2.87-1.86,8.85,8.85,0,0,0-3.31-.62A8.67,8.67,0,0,0,153,86.83a8.46,8.46,0,0,0-1.71,2.91,9.46,9.46,0,0,0,.43,6.88,9.36,9.36,0,0,0,2.05,2.9,9,9,0,0,0,2.85,1.87,8.48,8.48,0,0,0,6.74-.16Z"/><path class="cls-2" d="M205.09,91.85a11.43,11.43,0,0,1-3.62,4,12.63,12.63,0,0,1-5.31,2.07,14.4,14.4,0,0,1-5.42-.22,14.56,14.56,0,0,1-5.13-2.27,14.75,14.75,0,0,1-4.08-4.3,16,16,0,0,1-2.27-6.28,16.46,16.46,0,0,1,.22-6.72A14.73,14.73,0,0,1,182,72.78a14.24,14.24,0,0,1,4.19-3.73,14.85,14.85,0,0,1,5.28-1.88,12.42,12.42,0,0,1,5.58.35,11.65,11.65,0,0,1,4.58,2.56l-.58-3.78,6.8-1.06L212.34,94a17.27,17.27,0,0,1-.08,6,13.45,13.45,0,0,1-6.41,9.18,17.41,17.41,0,0,1-6.4,2.21,20.08,20.08,0,0,1-5.31.18,16.51,16.51,0,0,1-4.49-1.11,15,15,0,0,1-3.69-2.16,16.94,16.94,0,0,1-3-3l5.48-4.62a19.1,19.1,0,0,0,2.06,2.31,8.41,8.41,0,0,0,2.23,1.54,8.2,8.2,0,0,0,2.61.73,11.65,11.65,0,0,0,3.19-.11,8.52,8.52,0,0,0,3.37-1.25,8.22,8.22,0,0,0,2.35-2.27,8.1,8.1,0,0,0,1.24-3,9.21,9.21,0,0,0,.08-3.31Zm-8.79-.39a8.82,8.82,0,0,0,3.39-1.25,8.31,8.31,0,0,0,2.5-2.4,9.82,9.82,0,0,0,1.38-3.21,9.49,9.49,0,0,0,.12-3.69,9.23,9.23,0,0,0-1.23-3.42,9.32,9.32,0,0,0-2.29-2.61,8.54,8.54,0,0,0-3.1-1.51,9.1,9.1,0,0,0-3.61-.16A8.78,8.78,0,0,0,190,74.47a9.2,9.2,0,0,0-2.53,2.36A8.68,8.68,0,0,0,186.07,80a9.49,9.49,0,0,0-.12,3.69,9.69,9.69,0,0,0,1.24,3.5,8.84,8.84,0,0,0,9.11,4.28Z"/><path class="cls-2" d="M220.07,65.56l6.81.6-.39,4.42c1.61-2.83,4.29-4.08,8-3.75a11.33,11.33,0,0,1,2.89.61,11.15,11.15,0,0,1,2.24,1.12l-3.17,6.28a7.53,7.53,0,0,0-1.63-1,7.09,7.09,0,0,0-2.38-.54,5.86,5.86,0,0,0-4.7,1.3q-1.69,1.56-2,5.43l-1.39,15.85-6.86-.6Z"/><path class="cls-2" d="M251.25,101.59A14.48,14.48,0,0,1,246.5,99,14.68,14.68,0,0,1,243,94.61a15,15,0,0,1-1.71-5.68,16.22,16.22,0,0,1,.81-6.62,16.62,16.62,0,0,1,3.22-5.9,14.89,14.89,0,0,1,4.66-3.62,14.3,14.3,0,0,1,5.42-1.43,14.81,14.81,0,0,1,5.57.7,13.16,13.16,0,0,1,4.85,2.75,11.5,11.5,0,0,1,3,4.18l1.1-3.39,6.55,2.12-9.19,28.39L260.66,104l1.2-3.69a11.27,11.27,0,0,1-5,1.84A12.85,12.85,0,0,1,251.25,101.59Zm3-5.68a8.86,8.86,0,0,0,3.59.42,8.48,8.48,0,0,0,3.31-1,9.86,9.86,0,0,0,2.68-2.25,9.46,9.46,0,0,0,1.77-3.23,9.47,9.47,0,0,0-.42-7,8.52,8.52,0,0,0-2.09-2.75A9,9,0,0,0,260,78.34a9.11,9.11,0,0,0-3.62-.42,9.24,9.24,0,0,0-3.32,1,8.78,8.78,0,0,0-2.71,2.17,9.27,9.27,0,0,0-1.77,3.24,9.55,9.55,0,0,0-.47,3.68,8.89,8.89,0,0,0,.91,3.41,9.19,9.19,0,0,0,2.11,2.75A8.81,8.81,0,0,0,254.27,95.91Z"/><path class="cls-2" d="M284.43,117.85a14.25,14.25,0,0,1-4-4,10.24,10.24,0,0,1-1.7-4.86L269,123.21l-5.66-3.84,24.51-36,5.65,3.85-2.24,3.29a11.38,11.38,0,0,1,5.28-.45,12.41,12.41,0,0,1,5.32,2.1,15,15,0,0,1,3.92,3.94,14.07,14.07,0,0,1,2.18,5.15,15.12,15.12,0,0,1,0,5.88,16.54,16.54,0,0,1-2.68,6.16,16,16,0,0,1-4.75,4.71,15.3,15.3,0,0,1-5.5,2.15,14.4,14.4,0,0,1-5.59-.13A14.2,14.2,0,0,1,284.43,117.85Zm2.63-5.86a8.65,8.65,0,0,0,3.31,1.39,9,9,0,0,0,3.47,0,8.85,8.85,0,0,0,3.24-1.37,9.51,9.51,0,0,0,2.62-2.63,9.29,9.29,0,0,0,1.47-3.38,8.69,8.69,0,0,0,.05-3.48A9.22,9.22,0,0,0,300,99.29a8.65,8.65,0,0,0-2.51-2.57,8.77,8.77,0,0,0-3.35-1.42,8.42,8.42,0,0,0-3.43,0,9.2,9.2,0,0,0-3.17,1.39,9.78,9.78,0,0,0-2.55,2.58,9.63,9.63,0,0,0-1.49,3.37,9.3,9.3,0,0,0-.15,3.48,8.29,8.29,0,0,0,1.2,3.22A8.92,8.92,0,0,0,287.06,112Z"/><path class="cls-2" d="M327.77,103.5l4.45,5.26-8.78,7.41a10.83,10.83,0,0,1,4.8.93,11.48,11.48,0,0,1,4.16,3.19q3.59,4.26,3,8.82t-5.15,8.46L316.76,149l-4.54-5.38,12.94-10.92a8.4,8.4,0,0,0,3.15-4.86,6.22,6.22,0,0,0-1.72-5.16,7,7,0,0,0-2.17-1.74,6.33,6.33,0,0,0-2.62-.65,7.65,7.65,0,0,0-2.91.51,10.44,10.44,0,0,0-3,1.81L303.4,133.16l-4.47-5.31Z"/><path class="cls-2" d="M324,159.83l20.19-23.39,3.2,6.61L332.9,159.3l21.52-1.69,3.16,6.52-47,3-3.05-6.3Z"/><path class="cls-2" d="M373.7,204.53l-.2,7.85-25.76,15.47,25.35.65-.18,6.94-37.23-.95.19-7.4,26.59-15.91-26.17-.66.18-6.94Z"/><path class="cls-2" d="M362.74,247l-1.6,6.75-29-6.88,1.6-6.75Zm7.3.84a4.3,4.3,0,0,1,2.78,1.86,4.25,4.25,0,0,1,.44,3.36,4.21,4.21,0,0,1-1.91,2.82,4.32,4.32,0,0,1-3.31.39,4.51,4.51,0,0,1-1.29-8.06A4.3,4.3,0,0,1,370,247.85Z"/><path class="cls-2" d="M325.29,275.19A11.32,11.32,0,0,1,324,270a12.71,12.71,0,0,1,1.21-5.57,14.25,14.25,0,0,1,3.18-4.4,14.54,14.54,0,0,1,4.73-3,14.85,14.85,0,0,1,5.83-1,16.12,16.12,0,0,1,6.49,1.58,16.59,16.59,0,0,1,5.48,3.9,14.83,14.83,0,0,1,3,5.05,14.36,14.36,0,0,1,.79,5.55,15,15,0,0,1-1.35,5.44A12.49,12.49,0,0,1,350,282a11.86,11.86,0,0,1-4.67,2.41l3.47,1.6-2.87,6.25-26.42-12.15a17.36,17.36,0,0,1-5-3.37,13.48,13.48,0,0,1-4.1-10.43,17.14,17.14,0,0,1,1.69-6.55,20.63,20.63,0,0,1,2.78-4.53,16.28,16.28,0,0,1,3.41-3.12,15.23,15.23,0,0,1,3.84-1.89,17,17,0,0,1,4.15-.78l.83,7.12a20.22,20.22,0,0,0-3.07.44,8.32,8.32,0,0,0-4.57,2.78,12.28,12.28,0,0,0-1.67,2.72A8.47,8.47,0,0,0,317,266a8.35,8.35,0,0,0,.6,3.22,8,8,0,0,0,1.8,2.68,9.17,9.17,0,0,0,2.72,1.89Zm5.18-7.1a8.77,8.77,0,0,0-.83,3.52,8.29,8.29,0,0,0,.62,3.4,10,10,0,0,0,1.91,2.93,9.72,9.72,0,0,0,3,2.14,9.61,9.61,0,0,0,7,.4,8.44,8.44,0,0,0,3-1.76,9,9,0,0,0,2.13-2.92,8.73,8.73,0,0,0,.84-3.54,9.33,9.33,0,0,0-.57-3.41,8.74,8.74,0,0,0-1.84-3,9.47,9.47,0,0,0-3-2.14,9.74,9.74,0,0,0-3.6-.9,9,9,0,0,0-3.49.5,9.16,9.16,0,0,0-3,1.78A8.73,8.73,0,0,0,330.47,268.09Z"/><path class="cls-2" d="M345,307.89l-4.47,5.24-8.74-7.44a10.84,10.84,0,0,1-.13,4.87,11.47,11.47,0,0,1-2.47,4.64q-3.61,4.23-8.21,4.44t-9.18-3.7l-13.47-11.48,4.56-5.36,12.9,11a8.38,8.38,0,0,0,5.3,2.31,6.19,6.19,0,0,0,4.81-2.54,6.74,6.74,0,0,0,1.36-2.42,6.29,6.29,0,0,0,.22-2.7,7.49,7.49,0,0,0-1-2.78,10.16,10.16,0,0,0-2.27-2.64l-12.47-10.62,4.5-5.28Z"/><path class="cls-2" d="M314.06,329.76,310,332.85l2.75,3.61-2.65,8-5.62-7.39-4.83,3.68-3.74-4.92,4.83-3.67-6.77-8.9a20.52,20.52,0,0,0-2.06-2.37,3.3,3.3,0,0,0-1.78-.95,3.35,3.35,0,0,0-2,.44,20.14,20.14,0,0,0-2.66,1.77L281.57,317l.78-.59a23.23,23.23,0,0,1,5-3,7.73,7.73,0,0,1,4.2-.6,8.42,8.42,0,0,1,3.88,1.86,25.63,25.63,0,0,1,4.07,4.37l6.79,8.94,4.06-3.09Z"/><path class="cls-2" d="M265.72,324.62a15.23,15.23,0,0,1,6-1.42,15,15,0,0,1,5.85,1,15.65,15.65,0,0,1,9.15,20,15.68,15.68,0,0,1-3.1,5.06,15.47,15.47,0,0,1-11,5,16.08,16.08,0,0,1-5.86-1,15.17,15.17,0,0,1-5.06-3.09,15.48,15.48,0,0,1-3.62-5.05,15.25,15.25,0,0,1-1.43-6,15.72,15.72,0,0,1,1-5.88,15.49,15.49,0,0,1,3.1-5.06A15.22,15.22,0,0,1,265.72,324.62Zm2.69,5.89a8.25,8.25,0,0,0-2.81,2.07,8.73,8.73,0,0,0-1.7,2.91,8.88,8.88,0,0,0-.47,3.38,9.72,9.72,0,0,0,2.92,6.41,9.07,9.07,0,0,0,2.87,1.86,8.84,8.84,0,0,0,3.31.61,8.11,8.11,0,0,0,3.41-.77,8.57,8.57,0,0,0,4.54-5,9.25,9.25,0,0,0,.44-3.38,9.68,9.68,0,0,0-2.92-6.4,8.85,8.85,0,0,0-2.85-1.87,8.48,8.48,0,0,0-6.74.16Z"/><path class="cls-2" d="M226.65,339.89a11.35,11.35,0,0,1,3.62-4,12.63,12.63,0,0,1,5.31-2.07,14.74,14.74,0,0,1,14.63,6.78,16.09,16.09,0,0,1,2.27,6.28,16.51,16.51,0,0,1-.22,6.73,14.9,14.9,0,0,1-2.53,5.32,14.2,14.2,0,0,1-4.19,3.72,15.06,15.06,0,0,1-5.28,1.89,12.42,12.42,0,0,1-5.58-.35,11.65,11.65,0,0,1-4.58-2.56l.58,3.78-6.8,1.06-4.48-28.74a17.22,17.22,0,0,1,.08-6,13.45,13.45,0,0,1,6.41-9.18,17.23,17.23,0,0,1,6.4-2.21,20.08,20.08,0,0,1,5.31-.18,16.51,16.51,0,0,1,4.49,1.11,15,15,0,0,1,3.69,2.16,16.94,16.94,0,0,1,2.95,3l-5.48,4.62a19.23,19.23,0,0,0-2.06-2.32,8.61,8.61,0,0,0-2.23-1.53,8.28,8.28,0,0,0-2.61-.73,11.65,11.65,0,0,0-3.19.11,8.51,8.51,0,0,0-3.37,1.24,8.39,8.39,0,0,0-2.35,2.28,8.13,8.13,0,0,0-1.24,3,9.27,9.27,0,0,0-.08,3.32Zm8.79.38a9,9,0,0,0-3.39,1.26,8.31,8.31,0,0,0-2.5,2.4,9.82,9.82,0,0,0-1.38,3.21,9.45,9.45,0,0,0-.12,3.68,9.1,9.1,0,0,0,1.23,3.42,9.37,9.37,0,0,0,2.29,2.62,8.36,8.36,0,0,0,3.1,1.5,8.75,8.75,0,0,0,3.61.16,8.93,8.93,0,0,0,3.42-1.25,9.34,9.34,0,0,0,2.53-2.36,8.76,8.76,0,0,0,1.44-3.16,9.49,9.49,0,0,0,.12-3.69,9.69,9.69,0,0,0-1.24-3.5,8.88,8.88,0,0,0-9.11-4.29Z"/><path class="cls-2" d="M211.67,366.18l-6.81-.6.39-4.42c-1.61,2.83-4.28,4.07-8,3.75a10.91,10.91,0,0,1-2.89-.62,10.31,10.31,0,0,1-2.23-1.11l3.16-6.28a8,8,0,0,0,1.63,1,7.41,7.41,0,0,0,2.38.54,5.86,5.86,0,0,0,4.7-1.3c1.14-1.05,1.81-2.86,2-5.43l1.39-15.86,6.86.61Z"/><path class="cls-2" d="M180.49,330.15a14.48,14.48,0,0,1,4.75,2.64,14.68,14.68,0,0,1,3.55,4.34,15,15,0,0,1,1.71,5.67,16.25,16.25,0,0,1-.81,6.63,16.46,16.46,0,0,1-3.22,5.9,15,15,0,0,1-4.66,3.62,14.49,14.49,0,0,1-5.42,1.43,14.81,14.81,0,0,1-5.57-.7,13.25,13.25,0,0,1-4.85-2.75,11.53,11.53,0,0,1-3-4.19l-1.1,3.4L155.33,354l9.19-28.39,6.56,2.12-1.2,3.69a11.27,11.27,0,0,1,5-1.84A12.71,12.71,0,0,1,180.49,330.15Zm-3,5.67a9,9,0,0,0-3.59-.41,8.16,8.16,0,0,0-3.31,1,10,10,0,0,0-2.68,2.24,9.61,9.61,0,0,0-1.77,3.24,9.47,9.47,0,0,0,.42,7,8.38,8.38,0,0,0,2.09,2.74,8.74,8.74,0,0,0,3.15,1.77,8.94,8.94,0,0,0,3.62.43,9.24,9.24,0,0,0,3.32-1,8.56,8.56,0,0,0,2.71-2.18,9.14,9.14,0,0,0,1.77-3.23,9.55,9.55,0,0,0,.47-3.68,8.94,8.94,0,0,0-3-6.16A8.83,8.83,0,0,0,177.47,335.82Z"/><path class="cls-2" d="M147.31,313.89a14.13,14.13,0,0,1,4,4,10.2,10.2,0,0,1,1.7,4.85l9.69-14.26,5.66,3.85-24.51,36-5.65-3.84,2.24-3.29a11.38,11.38,0,0,1-5.28.45,12.43,12.43,0,0,1-5.32-2.11,14.84,14.84,0,0,1-3.93-3.93,14,14,0,0,1-2.17-5.15,15.12,15.12,0,0,1,0-5.88,16.59,16.59,0,0,1,2.68-6.17,16.16,16.16,0,0,1,4.74-4.7,15.23,15.23,0,0,1,5.51-2.15,14.4,14.4,0,0,1,5.59.13A14.2,14.2,0,0,1,147.31,313.89Zm-2.63,5.86a8.65,8.65,0,0,0-3.31-1.39,9,9,0,0,0-6.71,1.38,9.55,9.55,0,0,0-2.62,2.64,9.29,9.29,0,0,0-1.47,3.38,8.88,8.88,0,0,0-.06,3.48,9.44,9.44,0,0,0,1.28,3.21,8.73,8.73,0,0,0,2.5,2.57,9,9,0,0,0,3.36,1.42,8.37,8.37,0,0,0,3.42-.05,9,9,0,0,0,3.17-1.39,9.67,9.67,0,0,0,2.56-2.58,9.81,9.81,0,0,0,1.49-3.37,9.52,9.52,0,0,0,.14-3.48,8,8,0,0,0-1.2-3.22A8.64,8.64,0,0,0,144.68,319.75Z"/><path class="cls-2" d="M104,328.24,99.52,323l8.77-7.41a11,11,0,0,1-4.79-.93,11.4,11.4,0,0,1-4.16-3.19q-3.59-4.24-3-8.82t5.15-8.45L115,282.76l4.54,5.38-13,10.92a8.41,8.41,0,0,0-3.14,4.86,6.22,6.22,0,0,0,1.72,5.16,6.89,6.89,0,0,0,2.17,1.74,6.15,6.15,0,0,0,2.62.66,7.48,7.48,0,0,0,2.91-.52,10.31,10.31,0,0,0,3-1.81l12.52-10.56,4.47,5.3Z"/><path class="cls-2" d="M107.76,271.91,87.57,295.29l-3.2-6.61,14.46-16.25-21.51,1.69-3.16-6.52,47-3,3,6.29Z"/><path class="cls-2" d="M227.87,268.53a51.13,51.13,0,0,1-46.69-13.11l6.38-6.63A42,42,0,0,0,256,233.53l8.58,3.3A51.15,51.15,0,0,1,227.87,268.53Z"/><path class="cls-2" d="M233.42,294.57a80.63,80.63,0,1,1,61.15-96.25A80.72,80.72,0,0,1,233.42,294.57Zm-33.1-148.43a71.44,71.44,0,1,0,85.28,54.18A71.54,71.54,0,0,0,200.32,146.14Z"/><polygon class="cls-2" points="232.88 173.14 241.58 187.86 258.26 184.14 246.95 196.96 255.65 211.68 239.96 204.88 228.64 217.7 230.26 200.68 214.57 193.88 231.26 190.16 232.88 173.14"/><polygon class="cls-2" points="180.01 184.93 188.7 199.65 205.39 195.93 194.08 208.75 202.77 223.47 187.08 216.67 175.77 229.49 177.39 212.47 161.7 205.67 178.39 201.95 180.01 184.93"/></g></g></svg>