<svg xmlns="http://www.w3.org/2000/svg" viewBox="0 0 422.77 207.51"><defs><style>.cls-1{fill:#08b3e2;}.cls-2{fill:#010101;}</style></defs><title>StarStruck</title><g id="Layer_2" data-name="Layer 2"><g id="Layer_1-2" data-name="Layer 1"><path class="cls-1" d="M354.88,131.23l.11-.12c.67-.68,1.6-1.49,1.6-1.49l.25-.22,5.11-6.19a12.83,12.83,0,0,1,.92-1c1-1,4.9-5.45,6.05-6.76a50,50,0,0,1,5.76-6.5l.19-.18.1-.13.24-.29c3.4-4,11.68-9,20.55-6.12l1.62.53a17.31,17.31,0,0,1,1.73.69A18.91,18.91,0,0,1,410,123.51a14.36,14.36,0,0,1-.43,2,18.48,18.48,0,0,1-.5,1.87l-.1.28a20,20,0,0,1-2.95,5.57l.33.15a18.12,18.12,0,0,1,8.21,7.42c.14.24.28.49.41.74a23.92,23.92,0,0,1,2.93,6.83,21.21,21.21,0,0,1-.11,11.59l-.62,1.9a18,18,0,0,1-3.72,6.53c8,4.34,11.2,12.8,8.17,22a21.33,21.33,0,0,1-4.2,7.35c-.2.23-.41.45-.62.66l-1.73,1.75a14.68,14.68,0,0,1-3.36,2.55,34.62,34.62,0,0,1-8.24,3.25l-.17,0a35.64,35.64,0,0,1-5.28.78l-.54.05h-.1a25.92,25.92,0,0,1-3.63.38l-.72,0a23.45,23.45,0,0,1-8.32-.47c-.3-.07-.61-.16-.91-.25l-3.46-1-.4-.13a24,24,0,0,1-2.89-1.21l-.45-.2a15.19,15.19,0,0,1-2.92-1.43,27,27,0,0,1-2.59-1.83L370,199.9a15,15,0,0,1-2.61-2l-.53-.5a46.89,46.89,0,0,1-6.42-7.09c-.47-.51-.93-1-1.33-1.48l-.28.33a33.05,33.05,0,0,1-5.76,5.77,15.29,15.29,0,0,1-4.78,2.42l-1.52.45a15.11,15.11,0,0,1-5.35.58,20,20,0,0,1-4.77-1l-.38-.13c-4.88-1.59-8.56-5.12-11-10.49,0,0-9.34.77-24.59-4.23s-23-14.24-23-14.24a23,23,0,0,1-12,1.48,16.78,16.78,0,0,1-3.57-.76,22.46,22.46,0,0,1-12.08-10.2,16.1,16.1,0,0,1-.76-1.76l-.93-2.62a13.84,13.84,0,0,1-.53-1.91,17.47,17.47,0,0,1-.52-2.89c-.15.16-.29.32-.44.47a15.31,15.31,0,0,1-2.76,2.26l-1,.64a17.73,17.73,0,0,1-11.72,3.69v0l-3.2-.2c-5.83-.37-11.25-4.25-14.23-9.82,0-.06-.07-.12-.1-.19l-.68.63a14.11,14.11,0,0,1-1.6,1.29c-7.11,5-13.26,4.5-17.16,3.22a17.18,17.18,0,0,1-5.72-3.16c-.36.28-.73.56-1.11.81a33,33,0,0,1-5.11,2.63l-.72.32h0c-4.25,1.84-12.58,2.85-19.28,1.55a35,35,0,0,1-4.07-1c-.38-.13-.76-.27-1.14-.43l-3-1.26a19.2,19.2,0,0,1-5.83-3.31c-3.81-3-12.15-10-8.89-22.65,0,0-8.52,2.86-19.5-.73-12.5-4.1-17.2-12.68-17.2-12.68s-5.54,2.17-14.24-.68-12-8.78-12-8.78l-.07.06a15.55,15.55,0,0,1-1.6,1.29c-7.11,5-13.26,4.49-17.16,3.22a17.82,17.82,0,0,1-10.69-9.8l-.19-.4c-.17-.33-.29-.68-.43-1-.63.2-1.27.39-1.91.55a28.67,28.67,0,0,1-8.84,1.57,15.9,15.9,0,0,1-1.69,0l-5.22-.45a16.71,16.71,0,0,1-2.23-.36L20.5,95.45a11.77,11.77,0,0,1-1.16-.33L18.87,95l-2.75-1a17.41,17.41,0,0,1-4.23-2.29l-.09-.06a17.34,17.34,0,0,1-5.29-4.82,29.58,29.58,0,0,1-2.16-3.37l-.28-.48c-.09-.15-.18-.31-.26-.47l-.41-.59a14.88,14.88,0,0,1-1.61-3.09l-.74-1.92a15,15,0,0,1-1-5.06,22,22,0,0,1,.21-5.13c0-.09,0-.18,0-.28.19-.94.44-2.12.44-2.12a16.15,16.15,0,0,1,.8-2.53,26.35,26.35,0,0,1,5.52-8,14.39,14.39,0,0,1,2.16-1.81l2.17-1.5a15.12,15.12,0,0,1,4.51-2.11c.06,0,6.4-1.73,11.85-.12-.37-2.12-.53-4.09-.68-5.82-.08-1-.16-2-.27-2.81,0-.14,0-.28-.05-.41-.64-6,1.27-13,2.47-16.65a20.58,20.58,0,0,1,1.11-2.68c.23-.58.46-1.08.66-1.49a17.64,17.64,0,0,1,1-1.93,28.66,28.66,0,0,1,8.71-9.54L42,6a20,20,0,0,1,2.87-1.78,15,15,0,0,1,3.73-1.71l3.86-1.16A15.09,15.09,0,0,1,54.3.88l.23,0C57.37.23,64-1.19,74,2.06c3.94,1.29,8.82,3.29,12.72,7.41a22.91,22.91,0,0,1,4,4.84l.12.19a1,1,0,0,1,.09.13,21.12,21.12,0,0,1,3.46,9,23.61,23.61,0,0,1,.32,3c.29.08.58.15.87.24l1.33.44a14.76,14.76,0,0,1,3.74,1.83l.32.21c9.23,6,10.81,13.34,10.45,18.56,0,0,6.61-1.43,18,2.39A58.29,58.29,0,0,1,148,60.37s21-6.91,41.34,10.93c0,0,11.29-3.23,25.46,5.9a19.51,19.51,0,0,1,6.08-4.7,15.05,15.05,0,0,1,11.44-.87l1.33.44a14.92,14.92,0,0,1,3.74,1.83l.32.21c8.1,5.27,10.31,11.57,10.48,16.56a41.2,41.2,0,0,1,20.68,1.76c13.88,5,16.94,11.19,16.94,11.19s25.44-.5,33.42,18c0,0,20.89-6.33,35.81,9.46M39.1,10.93c.17-.39.35-.76.53-1.12C39.44,10.18,39.26,10.55,39.1,10.93ZM.27,69.05a14.25,14.25,0,0,1,.41-1.83A14.24,14.24,0,0,0,.27,69.05Zm0,.19a13.56,13.56,0,0,0-.17,1.92A14.87,14.87,0,0,1,.23,69.24Zm13.23-9.86h0l.16-.22C13.57,59.23,13.51,59.3,13.46,59.38Zm354.26,57.83q-.35.58-.63,1.2C367.29,118,367.51,117.58,367.72,117.21Zm.83-1.28c-.26.37-.51.74-.74,1.13C368.07,116.63,368.32,116.25,368.55,115.93Z"/><path class="cls-2" d="M79.07,31.22a10,10,0,0,0,.47-5.32A6.05,6.05,0,0,0,78.48,23a9.56,9.56,0,0,0-2.26-2.74c-1.12-1.42-2.93-2.65-6.93-4-7.14-2.34-10.77-.9-12.54-.63l-3.86,1.16c-.06.19-1.52.77-2,1.15l-1.52,1.08a14.37,14.37,0,0,0-4.19,4.43c-.06.19-.44.7-.53,1s-.25.45-.38.83c-.28.86-.59,1.17-.81,1.84-.28.86-2.18,7-1.82,10.37.5,3.64.42,7.41,1.52,10.83l.45,2.46c.42,1,.47,4.37.76,4.78,1.12,3,.38,5.93.55,8,0,.1-.22,1-.47,1.75a6.19,6.19,0,0,0-.19.89c-1,3-1,2.31-2.22,4.22a7.16,7.16,0,0,1-.67.73l-.75.7A8.18,8.18,0,0,1,36.71,74l-3.89.63a22.85,22.85,0,0,1-6.47-1.17,2.88,2.88,0,0,1-1.85-2.72,3.71,3.71,0,0,1,.53-1.3,4.59,4.59,0,0,0,.62-1.27,16.24,16.24,0,0,0,.88-1.4s.44-.7.38-.83L27,65.2a3.66,3.66,0,0,0-1.21-1.77l-.09,0L24.8,63l-1.33-.44a15,15,0,0,0-3.55.21l-2.17,1.5a12.2,12.2,0,0,0-2.33,3.25s-.22,1-.37,1.77a17,17,0,0,0,0,2.22l.74,1.93.92,1.36c0,.09.29.41.26.5a19.71,19.71,0,0,0,1.66,2.65c.06.13.86.92,1,.85.35.22,1.46,1,1.55,1l2.83,1,6.06,1.46,5.23.45a13.09,13.09,0,0,0,5-1,22.35,22.35,0,0,0,3.38-1,26,26,0,0,0,3-2l.94-1a16.18,16.18,0,0,0,2.78-2.36l1.51-1.72a25.34,25.34,0,0,0,1.7-3.24l.68-1.46c.41-1.56,1.58-7.39,1.19-9.1a24.81,24.81,0,0,1-.24-3.45l-1-7.09L53,43.33l-.27-2.72c-.16-1.74-.71-2.34-.59-4.31l0-1a14.58,14.58,0,0,1,.3-2.54A13.31,13.31,0,0,1,53.09,31l.5-1.52A10.37,10.37,0,0,1,55.47,27l2-1.34,1-.73,1.74-.8c3.42-1.1,4.59-1.45,7.82-.39,1.34.43,3.31,1.18,2.72,3.94l-.43,2.92a4.94,4.94,0,0,1,.07.76,2.76,2.76,0,0,0,.06,1.08l.58.82a4.28,4.28,0,0,0,1.75,1.41l.92.41a3.47,3.47,0,0,0,1.59.63C76.33,36,78.16,34,79.07,31.22Z"/><path class="cls-2" d="M123.72,97l.44-1.33c.47-1.12,1.94-4.64,2.16-5l3.38-6.8,4.4-7c.48-.79,1.6-3.27,1.63-3.36.72-2.19.89-5.3-2.72-6.48-.86-.29-3.74-.49-3.93.08-.38-.13-2.26-1.8-2.54-1.89a14,14,0,0,0-1.78-.69,16.91,16.91,0,0,0-13.21,1.37l-1.07.57-2.36-2.64a5.7,5.7,0,0,0-.73-.66l-1.17-.92a28.93,28.93,0,0,0-6.2-3c-2.28-.75-7.49-2.25-8.82-2.68.06-.19.31-1.27.41-1.56l2.48-3.4,1.54-1.81.56-1.72c1.19-3.61-2.15-5.34-4-6.57l-1.33-.43a3.66,3.66,0,0,0-2.08,2.16l-5.75,8.55c-1.19,3.62-2.94,2.52-3.6,2.62-.19-.06-2.12-.27-2.22-.31l-3.71-.26c-2.94.3-4.37-.17-4.84,1.26-.59,1.81.56,4.08.16,5.32l.67,1.17a15.72,15.72,0,0,0,1,1.29l4.09.39c.09,0,.63.32.73.35l-.13.38c-.34.73-3.08,4.89-3.7,5.85-1.7,2-3,4.7-3.78,5.4l-3.3,4.61c-.25.13-2.53,1.28-2.88,1.38l-1.8,1.31a2.09,2.09,0,0,0-.21.35c-.47,1.43.49,3.32.47,5.95l.19,1c.77,1.52.93,2.31,2.17,2.72,1,.34,2.25-.11,3.89-1.26L67.84,90A44.31,44.31,0,0,0,73,82.67l.91-1.18a12.82,12.82,0,0,1,1-1.56L78.75,74c.06-.19,1.63-2.41,1.73-2.7l2-3.15c3.66-3.75,1.19-3.93,5.44-3.38a77,77,0,0,1,9.23,2.07L103.59,69a13.86,13.86,0,0,1,1.27.66,16.11,16.11,0,0,0-4.51,3.76c-2.53,1.28-4.79,4.65-7.16,7,0,.1-2.48,3.09-2.74,3.53a6.52,6.52,0,0,0-1.6,2.64,10.56,10.56,0,0,0-.5,6c-.1.29.86,1.23.79,1.42L92,96.38l1.33.44c3.77.39,4.76,1.24,8.17-.49a29.73,29.73,0,0,0,7.9-3.21l2.5-1.5,6.31-4.78,1.51-1.4c-.44,1-1.85,3.4-1.94,3.68L116.94,91a37.8,37.8,0,0,0-1.37,3.56c-2.34,7.14.43,9.31.62,10.32.77,1.52,2.64,1.6,3.75,2.71l1.72.56,1.87.08c2.09.69,3.47-1.6,3.69-2.26C128.84,101,122.09,105.51,123.72,97Zm.27-22c-.85.67-2.56,1.69-12.44,8.36-7.93,4.57-9.25,5.72-11.16,5.1-.47-.16-.57-.51-.38-1.08a3,3,0,0,1,.72-1.24l2.14-2.35c1.23-.86,6-6.46,10.19-8.58,2.91-1.79,5.49-4.84,9.58-4.13C125.4,71.91,124.87,74.16,124,74.93Z"/><path class="cls-2" d="M173.48,88.29a5.23,5.23,0,0,0,3.16,0c.38-.19.44-.38.82-.58a3.63,3.63,0,0,0,1.36-1.24,4.12,4.12,0,0,0,.5-.89,2.7,2.7,0,0,0,.09-1.87,5.86,5.86,0,0,0-.49-1.42A3.15,3.15,0,0,0,177.56,81a8.57,8.57,0,0,0-1.91-.94,7.4,7.4,0,0,0-1.49-.28,24.58,24.58,0,0,0-3.55.52c-.69.2-1.32.52-2,.71-1.23.55-2.56,1.06-3.82,1.7-2,.93-4.24,2.3-6.07,3.39-3.79,2.24-6.35,3.93-8.78,5.56.44-.7,1.48-2.26,2.61-3.79L155,84.65c.94-1.27,3-4.48,3.33-5a3.91,3.91,0,0,0-1-4,14.72,14.72,0,0,0-3.49-1.25c-.76-.25-1.17.67-2,1-.47.16-.54.35-.88.76a6.83,6.83,0,0,0-1.23,1.18,93.36,93.36,0,0,0-5.54,7.57l-1.32,1.78a62,62,0,0,0-4,6.07l-1.45,2.48c-1.47,2.26-5.87,8.61-6,9.09a4.84,4.84,0,0,0,2.28,5.91l3.2.21a2.93,2.93,0,0,0,1.86-.87l1.87-1.18c2.23-2.32,4.88-5.88,6.17-6.94.51-.25,2.87-1.69,6-3.61,2-1.15,4.11-2.24,6.42-3.48,2.55-1.38,5.24-2.82,7.71-3.91A39.47,39.47,0,0,1,173.48,88.29Z"/><path class="cls-2" d="M202.13,86.4,201,86l-1.17-.28c-3.24-1.06-9.15.27-13.2,2.32-1,.29-4,2.9-4.7,3.73A14.5,14.5,0,0,0,179.38,97l-.44,1.33-.28,1.17a31.71,31.71,0,0,0-.88,5.93l-.18,3.42c.15,3.11-.3,8-.57,12-.19.57-.34,2-.84,3.52a6.81,6.81,0,0,1-1.47,2.58,30.24,30.24,0,0,1-2.27,2.1,8.84,8.84,0,0,1-5.57,1.87c-3.8-1.25-4.8-4-7.75-5l-.57-.19a5.11,5.11,0,0,0-3.39,1.32,3.67,3.67,0,0,0-.88,1.08c-1.15,3.52-.26,5,3.78,8.09a6.88,6.88,0,0,0,1.62.85l3.43,1.44c.19.06,1.56.4,2.06.46a25.53,25.53,0,0,0,10.49-.46,27.44,27.44,0,0,0,3.76-1.83,18.2,18.2,0,0,0,4.22-4.52,20.27,20.27,0,0,0,3-6.51c1.36-6.72.89-18.79,1.26-21.51a18.51,18.51,0,0,1,.49-2.79l.43-1.34a6.11,6.11,0,0,1,3.25-3.47,17.76,17.76,0,0,1,4.65-1c.89-.13,6.18-.19,7.38-1,.66-.41,1.07-1.65,1.66-3.46C206.27,89.55,203.47,86.84,202.13,86.4Z"/><path class="cls-2" d="M273,119a3.71,3.71,0,0,0,1.36-1.24,4.6,4.6,0,0,0,.5-.89A2.75,2.75,0,0,0,275,115a6.35,6.35,0,0,0-.48-1.42,3.16,3.16,0,0,0-1.37-1.29,8.52,8.52,0,0,0-1.9-.94,8.33,8.33,0,0,0-1.49-.28,23.16,23.16,0,0,0-3.55.53c-.7.19-1.33.51-2,.7-1.24.55-2.56,1.06-3.83,1.7-2,.93-4.23,2.31-6.06,3.39-3.79,2.24-6.35,3.93-8.78,5.56.44-.7,1.48-2.26,2.61-3.78l2.42-3.22c.95-1.27,3.05-4.48,3.33-5a3.91,3.91,0,0,0-1-4,15.84,15.84,0,0,0-3.49-1.25c-.76-.25-1.17.67-2,1-.48.16-.54.35-.89.76a8,8,0,0,0-1.23,1.18c0,.08-.12.16-.17.23l-.24-.26a5.7,5.7,0,0,0-.73-.66l-1.18-.91a29.2,29.2,0,0,0-6.19-3c-2.28-.75-7.49-2.24-8.82-2.68.06-.19.31-1.27.4-1.55l2.49-3.41,1.54-1.81.56-1.71c1.19-3.62-2.15-5.35-4-6.57l-1.33-.44a3.71,3.71,0,0,0-2.08,2.17l-5.75,8.55c-1.19,3.61-2.94,2.52-3.6,2.61-.19-.06-2.13-.27-2.22-.3l-3.71-.27c-2.94.3-4.37-.16-4.84,1.26-.59,1.81.56,4.09.16,5.32l.67,1.17a15.78,15.78,0,0,0,1.05,1.3l4.09.39c.09,0,.63.31.73.34l-.13.38c-.34.73-3.08,4.9-3.71,5.85-1.7,2-3,4.7-3.77,5.41l-3.3,4.61c-.25.12-2.53,1.28-2.88,1.37l-1.8,1.31a3.94,3.94,0,0,0-.22.35c-.46,1.43.5,3.32.48,6l.19,1c.77,1.51.93,2.31,2.17,2.71,1.05.34,2.25-.11,3.89-1.25l1.52-1.41a45,45,0,0,0,5.12-7.28l.91-1.18a12.72,12.72,0,0,1,1-1.55l3.84-5.91c.06-.2,1.63-2.42,1.72-2.71l2-3.14c3.66-3.76,1.19-3.94,5.44-3.39a76.45,76.45,0,0,1,9.22,2.08l6.48,2.12a6.6,6.6,0,0,1,.75.37c-.47.67-.92,1.35-1.34,2.07L238.38,118a60.15,60.15,0,0,0-4,6.07l-1.45,2.48c-1.48,2.26-5.88,8.62-6,9.09a4.84,4.84,0,0,0,2.27,5.91l3.21.21a2.89,2.89,0,0,0,1.86-.87l1.86-1.18c2.24-2.32,4.88-5.88,6.18-6.94.5-.25,2.87-1.69,6-3.61,2-1.15,4.1-2.24,6.41-3.48,2.56-1.38,5.25-2.82,7.71-3.91a39,39,0,0,1,6.61-2.15,5.39,5.39,0,0,0,3.17,0C272.6,119.4,272.66,119.21,273,119Z"/><path class="cls-2" d="M305.91,129.05a11.66,11.66,0,0,0-3.15-2c-1.71-.57-3,1.22-5.27,3.54l-2.08,2.16a2.06,2.06,0,0,1-.63.32c-.82.26-10.26,6.24-10.93,6.65-2.24,1.69-6.44,3.26-10.14,5.53l-.6-.09c-.13.07,0-.22,0-.32.9-2.76,3.52-5,5.44-7.28l3.21-4,3.21-4.32,3.56-4.42c1.37-4.19-2.85-5.79-3.9-6.13-1.9-.62-2-.34-2.91.52l-1.51,2c-.22.35-3.87,4.42-4.16,5-.06.19-1.25,2.23-1.66,2.83l-2.7,3.75c-.41.61-1.07,1.65-1.42,2.07l-1.73,2.38c-4.66,6.49-5.22,6.94-6.1,9.6a4.21,4.21,0,0,0,.11,2.57l.93,2.62c.39.76,2.49,2.71,3.73,2.8,2.34.24,3.39.27,5.38-.66l7.3-3.3a29.34,29.34,0,0,0,4.07-2.46l7-5.39,2.65-1.66a7.25,7.25,0,0,0-.6,1.17l-3,5.75c0,.1-.72,1.88-.93,2.54l-.6,2.13.47,4.68c.17,2.06,3.06,3.22,4.68,3.75,1,.34,1.55.4,2.06.15l.79-.8a14.59,14.59,0,0,0,1.06-2l.19-.57c.37-1.14-1.76-3-1.26-4.52,0-.1.31-1.27.44-1.65a14.92,14.92,0,0,1,1.75-3.75l8.11-11.89.53-1.62a6.69,6.69,0,0,0-.69-5Z"/><path class="cls-2" d="M405.78,181.37a5,5,0,0,0-2.29-.43l-.82.26a2.38,2.38,0,0,1-.73.29l-1.17.35a16.59,16.59,0,0,1-2.65.71l-1,.1c-.86,0-2.25.11-3.36.27l-2.25.11a11.83,11.83,0,0,1-2.38-.15l-3.71-1.21a8.22,8.22,0,0,1-2-1.29c-.32-.32-1.15-1-1.15-1l-.89-.82-1.08-1.2a17.7,17.7,0,0,0-1.24-1.35l-2.71-3-1.15-1.32a15.9,15.9,0,0,1-2.52-3.25l-1.44-1.74-.67-1.17c1.18,0,3.77.08,4.72.07l2.76,0c2.25-.11,4.66-.38,5.76-.54,2.95-.3,5.32-.15,9.4-1.66l.95-.33,1.74-.48,2.25-1.06c.53-.35,2.52-1.59,2.52-1.59,2-1.47,2.14-2.36,2.21-2.55l.65-2a6.81,6.81,0,0,0-.14-3.1,14,14,0,0,0-1.73-3.73A3.2,3.2,0,0,0,400,147l-.76-.25a12.41,12.41,0,0,0-3.49-1.57l-.48-.15a23.88,23.88,0,0,0-3.14-.72,21.14,21.14,0,0,0-4.24.09c-2,.29-4.06.78-6.33,1.3l-1.65.51a49.68,49.68,0,0,0-6.1,1.59l-.38.19.41-.6a94.37,94.37,0,0,1,7.77-9.26l7.21-8.82,3.78-3.5,1.8-1.94a7.55,7.55,0,0,1,.38-.83l.09-.28a6,6,0,0,0,.12-.7l.22-.67a3.88,3.88,0,0,0-2.46-4.39l-1.62-.53c-1.81-.59-4,1.1-4.4,1.51l-.53.67a48.08,48.08,0,0,0-5.48,6.11c0,.1-7,7.93-7.15,8l-6.3,7.64-.82.57s-.44.38-.75.7-6.42,8.33-6.39,8.24l-2.84,3.18-6.08,7.41c-1-.05-2.16-.7-4.11-.1L341.4,162a73.11,73.11,0,0,1-14.24,1.65l-2.06-.14a17.87,17.87,0,0,1-6.76-1.27c-2.47-.81-2.35-.87-3.53-2.1l-.22-.6c-1.37-1.61-.31-4.53.47-6.28.44-1.33,1.83-3,5.08-5.5l1.64-1.15c4.33-1.64,7.36-3.81,10.75-4.18a10,10,0,0,1,1.1-.16,2,2,0,0,1,1.05.34l.42,1.3a2.45,2.45,0,0,0,1.56,1c.38.12.44.56.86.59a6.06,6.06,0,0,0,2.66-.39,3.71,3.71,0,0,0,2.36-1.75l.57-1.08-.42-1.62c-.94-2.62-1.54-3-1.7-3.19l-1.69-2.24a14.5,14.5,0,0,0-1.21-.82l-1.23-.4-2.35-.24-3.74.14-2.06.49-2.87.74-5,2-1.89,1-2.25,1.37-5.17,3.9a16.19,16.19,0,0,0-3.75,5l-.84,1.94c-.22.66-1.38,3.23-1.41,3.65l-.74,2.91-.05,3a24.65,24.65,0,0,0,1.06,3.51l2.91,4c.86.92,4.22,2.55,6,3.14a16.29,16.29,0,0,0,4.79.83c.1,0,1.33.12,1.43.15l2.66.24,4.62,0,1.11.15c.45-.06,3.58,0,3.93-.08a80.42,80.42,0,0,0,8.41-1.27c-1.11,1.34-2.48,3.2-3.23,4.13l-.72,1.55a9.41,9.41,0,0,0,.74,3.2c.55,1.55,1.29,3.16,2.43,3.53l.38.13a5.5,5.5,0,0,0,1.17.28L344,183a19.32,19.32,0,0,0,3.18-3.28l1.39-1.66,4.72-5.72,1.23-1.5c3.65-4.07,5-6,6.17-6.94A77.15,77.15,0,0,0,365,171.7a33.69,33.69,0,0,0,3.67,5.21l.76.88a37.32,37.32,0,0,0,2.87,3.15c1,1.9,3.47,4.2,5.48,6.12l.79.47,2,1.61a13.21,13.21,0,0,0,1.11.78l.38.13c.19.06,2.38,1.09,2.57,1.15l3.46,1a8.37,8.37,0,0,0,3.65.14l1.39-.07a5.8,5.8,0,0,0,2-.29l.86,0a36.9,36.9,0,0,0,3.73-.46,19.69,19.69,0,0,0,4.72-1.83l1.73-1.75a6.61,6.61,0,0,0,1.22-2.13C408.23,183.23,407.71,182.22,405.78,181.37Zm-38-22.36h-2.21c-.29-.09-.39-.44,0-.54l1.83-1.4c1.42-.8,3-1.54,4.52-2.21a27.41,27.41,0,0,1,5.76-1.8l4.11-1,4.53-.63c.41,0,1.58,0,1.58,0l1.14.06a4.59,4.59,0,0,1,1.78.37l.54.6a1.5,1.5,0,0,1-.09.92,3.71,3.71,0,0,1-1.07,1.33,11.93,11.93,0,0,1-3.32,1.13l-1.21.13-1.58.33-2.31.61-6,1.08c-1,.19-2.47.46-3,.49C371.16,158.64,369.39,158.91,367.77,159Z"/></g></g></svg>